<svg width="586" height="412" viewBox="0 0 586 412" fill="none" xmlns="http://www.w3.org/2000/svg">
<g opacity="0.8">
<path d="M209.393 404.61L232.396 362.664" stroke="#FFB066" stroke-width="2.87043" stroke-linecap="round"/>
<path d="M198.567 66.3378C192.253 65.4357 189.772 67.9164 191.125 73.7798C192.027 80.0942 189.547 82.5749 183.683 81.2218C177.369 80.3198 174.888 82.8005 176.241 88.6639C177.143 94.9783 174.663 97.459 168.799 96.1059" stroke="#66DBFF" stroke-width="2.87043" stroke-linecap="round"/>
<path d="M277.049 407.317L265.548 403.934L275.02 395.816L277.049 407.317Z" fill="#FFE666"/>
<path d="M11.8409 98.8126L8.45815 108.961L1.69271 99.4892L11.8409 98.8126Z" fill="#A1FF66"/>
<path d="M197.217 150.904C200.826 146.393 199.698 143.462 193.835 142.109C187.971 140.755 186.844 137.373 190.452 131.96C194.06 127.45 192.933 124.518 187.069 123.165C181.206 121.812 180.078 118.881 183.687 114.37" stroke="#87FF66" stroke-width="3.82723" stroke-linecap="round"/>
<path d="M359.588 293.657L385.297 297.716" stroke="#FF7A66" stroke-width="3.82723" stroke-linecap="round"/>
<path d="M467.163 137.371L452.279 134.665L456.338 119.781L469.869 122.487L467.163 137.371Z" fill="#66C7FF"/>
<path d="M28.7563 175.261L42.2872 182.026L33.4921 197.587L19.9611 190.821L28.7563 175.261Z" fill="#A866FF"/>
<path d="M181.655 280.803L179.625 290.951L172.183 284.862L181.655 280.803Z" fill="#66FFA8"/>
<path d="M110.618 316.659L100.47 310.57L104.529 302.451L115.354 307.863L110.618 316.659Z" fill="#A6FF66"/>
<path d="M211.423 186.086L235.779 213.148" stroke="#FFF266" stroke-width="2.87043" stroke-linecap="round"/>
<path d="M60.553 62.2777L86.2617 66.3369" stroke="#66FF91" stroke-width="2.87043" stroke-linecap="round"/>
<path d="M582.849 104.224C576.985 102.871 574.73 105.126 576.083 110.989C577.436 116.853 575.181 119.108 569.318 117.755C563.454 116.402 561.199 118.657 562.552 124.52C563.905 130.384 561.65 132.639 555.787 131.286" stroke="#66FF73" stroke-width="3.82723" stroke-linecap="round"/>
<path d="M106.559 -2.67078L116.03 -13.4956L118.736 2.74156L106.559 -2.67078Z" fill="#66C7FF"/>
<path d="M528.049 253.74L532.785 239.532L543.609 247.651L528.049 253.74Z" fill="#D4FF66"/>
<path d="M155.269 208.412L156.622 224.65L141.738 219.237L155.269 208.412Z" fill="#FF6E66"/>
<path d="M371.088 99.0381L378.691 94.8827L386.216 98.9575L384.961 90.4924L390.917 83.9858L382.922 82.576L378.766 74.9735L374.692 82.4988L366.226 83.7542L371.949 90.2591L371.088 99.0381Z" fill="#9EFF66"/>
<path d="M134.298 39.95L145.123 29.1252L156.624 40.6265L145.799 51.4512L134.298 39.95Z" fill="#66FFC9"/>
<path d="M412.361 332.894L418.45 341.689L406.948 342.366L412.361 332.894Z" fill="#66FFC7"/>
</g>
</svg>
